<svg width="350" height="50" xmlns="http://www.w3.org/2000/svg" preserveAspectRatio="xMidYMid meet">

 <g>
  <title>background</title>
  <rect fill="none" id="canvas_background" height="52" width="352" y="-1" x="-1"/>
 </g>
 <g>
  <title>Layer 1</title>
  <polyline stroke-linecap="round" id="svg_142" points="67.8031193209685,318.8008887905778 67.8031193209685,318.8008887905778 65.80312573481183,318.8008887905778 " stroke-opacity="null" stroke-width="null" stroke="null" fill="none"/>
  <polyline stroke-linecap="round" id="svg_143" points="495.80174675850054,166.80137624266922 495.80174675850054,166.80137624266922 " stroke-opacity="null" stroke-width="null" stroke="null" fill="none"/>
  <line stroke-linecap="null" stroke-linejoin="null" id="svg_145" y2="350.800786" x2="1139.799682" y1="324.80087" x1="95.80303" stroke-opacity="null" stroke-width="null" stroke="null" fill="none"/>
  <g stroke="null" id="svg_154">
   <g stroke="null" id="svg_152">
    <ellipse stroke="null" ry="6.088367" rx="4.08227" id="svg_148" cy="43.667206" cx="14.392361" stroke-opacity="null" stroke-width="null" fill="#1a1aaf"/>
    <ellipse stroke="null" ry="6.088367" rx="4.08227" id="svg_150" cy="43.16816" cx="47.770919" stroke-opacity="null" stroke-width="null" fill="#1a1aaf"/>
   </g>
   <g stroke="null" id="svg_153">
    <path stroke="null" id="svg_147" d="m5.847242,14.345663c0,0 1.902037,-0.845814 1.902037,-0.845814c0,0 29.71933,1.033772 29.71933,1.033772c0,0 11.233907,9.867826 11.233907,9.867826c-0.237755,-0.469897 5.824989,4.698965 6.003305,4.792944c0,0 1.604844,9.397929 1.604844,9.397929c-0.059439,-0.281938 -1.604844,5.074882 -1.604844,5.074882c0.059439,-0.093979 -44.697872,-0.093979 -44.697872,-0.093979c0.713264,0.375917 -6.062743,-1.503669 -6.062743,-1.503669c0.356632,0.375917 -0.237755,-2.349482 -0.118877,-2.349482c0.118877,0 0.832141,-1.503668 0.832141,-1.503668c0,0 1.188773,-23.87074 1.188773,-23.87074z" stroke-opacity="null" stroke-width="null" fill="#1a1aaf"/>
    <path stroke="null" id="svg_151" d="m33.362908,16.693745c0,0 4.322403,0 4.322403,0c0,0 0.720401,-0.399237 7.924406,7.884934c-0.7204,7.984744 -11.826575,-1.297521 -11.766542,-0.598856c0.060033,0.698665 -0.480267,-7.286078 -0.480267,-7.286078z" stroke-opacity="null" stroke-width="null" fill="#fcfcfc"/>
   </g>
  </g>
  <g stroke="null" id="svg_161">
   <g stroke="null" id="svg_157">
    <ellipse stroke="null" ry="6.088367" rx="4.08227" id="svg_155" cy="44.736725" cx="89.258671" stroke-opacity="null" stroke-width="null" fill="#1a1aaf"/>
    <ellipse stroke="null" ry="6.088367" rx="4.08227" id="svg_156" cy="44.237678" cx="122.637229" stroke-opacity="null" stroke-width="null" fill="#1a1aaf"/>
   </g>
   <g stroke="null" id="svg_160">
    <path stroke="null" id="svg_158" d="m80.71355,15.415179c0,0 1.90204,-0.84581 1.90204,-0.84581c0,0 29.71933,1.03377 29.71933,1.03377c0,0 11.23391,9.86783 11.23391,9.86783c-0.23776,-0.4699 5.82498,4.69896 6.0033,4.79294c0,0 1.60484,9.39793 1.60484,9.39793c-0.05943,-0.28194 -1.60484,5.07488 -1.60484,5.07488c0.05944,-0.09398 -44.69787,-0.09398 -44.69787,-0.09398c0.71326,0.37592 -6.06275,-1.50367 -6.06275,-1.50367c0.35664,0.37592 -0.23775,-2.34948 -0.11887,-2.34948c0.11887,0 0.83214,-1.50367 0.83214,-1.50367c0,0 1.18877,-23.87074 1.18877,-23.87074z" stroke-opacity="null" stroke-width="null" fill="#1a1aaf"/>
    <path stroke="null" id="svg_159" d="m108.22922,17.763269c0,0 4.3224,0 4.3224,0c0,0 0.7204,-0.39924 7.92441,7.88493c-0.7204,7.98474 -11.82658,-1.29752 -11.76655,-0.59886c0.06004,0.69867 -0.48026,-7.28607 -0.48026,-7.28607z" stroke-opacity="null" stroke-width="null" fill="#fcfcfc"/>
   </g>
  </g>
  <g stroke="null" id="svg_168">
   <g stroke="null" id="svg_164">
    <ellipse stroke="null" ry="6.088367" rx="4.08227" id="svg_162" cy="43.667206" cx="155.568829" stroke-opacity="null" stroke-width="null" fill="#1a1aaf"/>
    <ellipse stroke="null" ry="6.088367" rx="4.08227" id="svg_163" cy="43.16816" cx="188.947387" stroke-opacity="null" stroke-width="null" fill="#1a1aaf"/>
   </g>
   <g stroke="null" id="svg_167">
    <path stroke="null" id="svg_165" d="m147.023708,14.345661c0,0 1.90204,-0.84581 1.90204,-0.84581c0,0 29.71933,1.03377 29.71933,1.03377c0,0 11.23391,9.86783 11.23391,9.86783c-0.23776,-0.4699 5.82498,4.69896 6.0033,4.79294c0,0 1.60484,9.39793 1.60484,9.39793c-0.05943,-0.28194 -1.60484,5.07488 -1.60484,5.07488c0.05944,-0.09398 -44.69787,-0.09398 -44.69787,-0.09398c0.71326,0.37592 -6.06275,-1.50367 -6.06275,-1.50367c0.35664,0.37592 -0.23775,-2.34948 -0.11887,-2.34948c0.11887,0 0.83214,-1.50367 0.83214,-1.50367c0,0 1.18877,-23.87074 1.18877,-23.87074z" stroke-opacity="null" stroke-width="null" fill="#1a1aaf"/>
    <path stroke="null" id="svg_166" d="m174.539378,16.693751c0,0 4.3224,0 4.3224,0c0,0 0.7204,-0.39924 7.92441,7.88493c-0.7204,7.98474 -11.82658,-1.29752 -11.76655,-0.59886c0.06004,0.69867 -0.48026,-7.28607 -0.48026,-7.28607z" stroke-opacity="null" stroke-width="null" fill="#fcfcfc"/>
   </g>
  </g>
  <g stroke="null" id="svg_175">
   <g stroke="null" id="svg_171">
    <ellipse stroke="null" ry="6.088367" rx="4.08227" id="svg_169" cy="44.201966" cx="222.948505" stroke-opacity="null" stroke-width="null" fill="#1a1aaf"/>
    <ellipse stroke="null" ry="6.088367" rx="4.08227" id="svg_170" cy="43.702919" cx="256.327063" stroke-opacity="null" stroke-width="null" fill="#1a1aaf"/>
   </g>
   <g stroke="null" id="svg_174">
    <path stroke="null" id="svg_172" d="m214.403386,14.880419c0,0 1.90204,-0.84581 1.90204,-0.84581c0,0 29.71933,1.03377 29.71933,1.03377c0,0 11.23391,9.86783 11.23391,9.86783c-0.23776,-0.4699 5.82498,4.69896 6.0033,4.79294c0,0 1.60484,9.39793 1.60484,9.39793c-0.05943,-0.28194 -1.60484,5.07488 -1.60484,5.07488c0.05944,-0.09398 -44.69787,-0.09398 -44.69787,-0.09398c0.71326,0.37592 -6.06275,-1.50367 -6.06275,-1.50367c0.35664,0.37592 -0.23775,-2.34948 -0.11887,-2.34948c0.11887,0 0.83214,-1.50367 0.83214,-1.50367c0,0 1.18877,-23.87074 1.18877,-23.87074z" stroke-opacity="null" stroke-width="null" fill="#1a1aaf"/>
    <path stroke="null" id="svg_173" d="m241.919056,17.228509c0,0 4.3224,0 4.3224,0c0,0 0.7204,-0.39924 7.92441,7.88493c-0.7204,7.98474 -11.82658,-1.29752 -11.76655,-0.59886c0.06004,0.69867 -0.48026,-7.28607 -0.48026,-7.28607z" stroke-opacity="null" stroke-width="null" fill="#fcfcfc"/>
   </g>
  </g>
  <g stroke="null" id="svg_182">
   <g stroke="null" id="svg_178">
    <ellipse stroke="null" ry="6.088367" rx="4.08227" id="svg_176" cy="44.201966" cx="288.723904" stroke-opacity="null" stroke-width="null" fill="#1a1aaf"/>
    <ellipse stroke="null" ry="6.088367" rx="4.08227" id="svg_177" cy="43.702919" cx="322.102462" stroke-opacity="null" stroke-width="null" fill="#1a1aaf"/>
   </g>
   <g stroke="null" id="svg_181">
    <path stroke="null" id="svg_179" d="m280.178786,14.88042c0,0 1.90204,-0.84581 1.90204,-0.84581c0,0 29.71933,1.03377 29.71933,1.03377c0,0 11.23391,9.86783 11.23391,9.86783c-0.23776,-0.4699 5.82498,4.69896 6.0033,4.79294c0,0 1.60484,9.39793 1.60484,9.39793c-0.05943,-0.28194 -1.60484,5.07488 -1.60484,5.07488c0.05944,-0.09398 -44.69787,-0.09398 -44.69787,-0.09398c0.71326,0.37592 -6.06275,-1.50367 -6.06275,-1.50367c0.35664,0.37592 -0.23775,-2.34948 -0.11887,-2.34948c0.11887,0 0.83214,-1.50367 0.83214,-1.50367c0,0 1.18877,-23.87074 1.18877,-23.87074z" stroke-opacity="null" stroke-width="null" fill="#1a1aaf"/>
    <path stroke="null" id="svg_180" d="m307.694456,17.22851c0,0 4.3224,0 4.3224,0c0,0 0.7204,-0.39924 7.92441,7.88493c-0.7204,7.98474 -11.82658,-1.29752 -11.76655,-0.59886c0.06004,0.69867 -0.48026,-7.28607 -0.48026,-7.28607z" stroke-opacity="null" stroke-width="null" fill="#fcfcfc"/>
   </g>
  </g>
 </g>
</svg>